# xmcd CD database file
#
# Track frame offsets:
#	150
#	17404
#	30209
#	46088
#	64272
#	81704
#	99847
#	117920
#	129792
#	151768
#	169262
#	187376
#	204511
#	228666
#	246356
#	268751
#
# Disc length: 3787 seconds
#
# Revision: 0
# Processed by: cddbd v1.5.1PL0 Copyright (c) Steve Scherf et al.
# Submitted via: CDex 1.50
#
DISCID=d20ec910
DTITLE=山本精一 - Baptism
DYEAR=2004
DGENRE=Rock
TTITLE0=Solitude
TTITLE1=Baptism
TTITLE2=Half Tone
TTITLE3=T.K.
TTITLE4=Heat
TTITLE5=Voice
TTITLE6=Humming
TTITLE7=Love
TTITLE8=Blues
TTITLE9=Nothing
TTITLE10=Step
TTITLE11=Open Air
TTITLE12=Harmonia
TTITLE13=C.S.
TTITLE14=Flowers
TTITLE15=Angels
EXTD=YEAR: 2004
EXTT0=
EXTT1=
EXTT2=
EXTT3=
EXTT4=
EXTT5=
EXTT6=
EXTT7=
EXTT8=
EXTT9=
EXTT10=
EXTT11=
EXTT12=
EXTT13=
EXTT14=
EXTT15=
PLAYORDER=
